<svg width="206" height="63" viewBox="0 0 206 63" fill="none" xmlns="http://www.w3.org/2000/svg">
<g filter="url(#filter0_d_4074_6400)">
<rect x="22" y="19" width="162" height="44" rx="7" fill="white"/>
</g>
<path d="M72.0745 40.066C72.0745 37.4621 74.1902 36.1602 74.3529 36.0788C73.1323 34.2886 71.1794 34.0445 70.5284 34.0445C68.901 33.8817 67.3549 35.0209 66.5412 35.0209C65.7275 35.0209 64.4255 34.0445 63.1235 34.1258C61.4147 34.1258 59.7873 35.1837 58.8922 36.7298C57.0206 39.9033 58.404 44.6229 60.1941 47.2268C61.0892 48.5287 62.1471 49.9121 63.449 49.8307C64.751 49.7493 65.2392 49.017 66.8667 49.017C68.4127 49.017 68.901 49.8307 70.2843 49.8307C71.6676 49.8307 72.5627 48.5287 73.4578 47.3081C74.5157 45.8434 74.9225 44.4601 74.9225 44.3787C74.8411 44.216 72.1559 43.1582 72.0745 40.066Z" fill="#0129A4"/>
<path d="M69.4718 32.3363C70.2041 31.4412 70.6924 30.2206 70.5296 29C69.4718 29.0814 68.2512 29.7324 67.4375 30.5461C66.7865 31.2784 66.2169 32.5804 66.3797 33.7196C67.6002 33.8823 68.7394 33.2314 69.4718 32.3363Z" fill="#0129A4"/>
<path d="M94.1237 49.4143H92.2838L91.3238 46.2945H87.8839L86.924 49.4143H85.1641L88.6039 38.7748H90.6838L94.1237 49.4143ZM91.0838 45.0145L90.2038 42.2146C90.1238 41.8946 89.9639 41.2547 89.6439 40.2147C89.5639 40.6947 89.4039 41.3347 89.1639 42.2146L88.2039 45.0145H91.0838Z" fill="#0129A4"/>
<path d="M102.998 45.4961C102.998 46.7761 102.678 47.816 101.958 48.616C101.319 49.256 100.519 49.6559 99.6386 49.6559C98.5986 49.6559 97.8787 49.256 97.4787 48.536V52.6158H95.7987V44.2962C95.7987 43.4962 95.7987 42.6162 95.7188 41.7363H97.2387L97.3187 42.9362C97.8787 42.0563 98.7586 41.5763 99.8786 41.5763C100.759 41.5763 101.558 41.8963 102.118 42.6162C102.678 43.3362 102.998 44.2962 102.998 45.4961ZM101.239 45.5761C101.239 44.8562 101.079 44.2162 100.759 43.7362C100.359 43.2562 99.8786 43.0162 99.2386 43.0162C98.8386 43.0162 98.4386 43.1762 98.1186 43.4162C97.7987 43.7362 97.5587 44.0562 97.4787 44.5362C97.3987 44.7762 97.3987 44.9361 97.3987 45.0161V46.2961C97.3987 46.8561 97.5587 47.336 97.8787 47.736C98.1986 48.136 98.6786 48.296 99.2386 48.296C99.8786 48.296 100.359 48.056 100.759 47.576C101.079 47.0161 101.239 46.3761 101.239 45.5761Z" fill="#0129A4"/>
<path d="M111.803 45.4961C111.803 46.7761 111.483 47.816 110.763 48.616C110.123 49.256 109.323 49.6559 108.443 49.6559C107.403 49.6559 106.683 49.256 106.283 48.536V52.6158H104.603V44.2962C104.603 43.4962 104.603 42.6162 104.523 41.7363H106.043L106.123 42.9362C106.683 42.0563 107.563 41.5763 108.683 41.5763C109.563 41.5763 110.363 41.8963 110.923 42.6162C111.483 43.3362 111.803 44.2962 111.803 45.4961ZM110.043 45.5761C110.043 44.8562 109.883 44.2162 109.563 43.7362C109.163 43.2562 108.683 43.0162 108.043 43.0162C107.643 43.0162 107.243 43.1762 106.923 43.4162C106.603 43.7362 106.363 44.0562 106.283 44.5362C106.203 44.7762 106.203 44.9361 106.203 45.0161V46.2961C106.203 46.8561 106.363 47.336 106.683 47.736C107.003 48.136 107.483 48.296 108.043 48.296C108.683 48.296 109.163 48.056 109.563 47.576C109.883 47.0161 110.043 46.3761 110.043 45.5761Z" fill="#0129A4"/>
<path d="M121.638 46.4544C121.638 47.3344 121.318 48.1344 120.678 48.6944C119.958 49.3343 118.998 49.6543 117.798 49.6543C116.678 49.6543 115.718 49.4143 115.078 49.0143L115.478 47.5744C116.198 48.0544 117.078 48.2944 117.958 48.2944C118.598 48.2944 119.078 48.1344 119.478 47.8944C119.798 47.5744 120.038 47.2544 120.038 46.6944C120.038 46.2945 119.878 45.8945 119.558 45.5745C119.238 45.2545 118.758 45.0145 118.118 44.7745C116.278 44.0546 115.318 43.0946 115.318 41.7347C115.318 40.8547 115.638 40.1347 116.278 39.5747C116.918 39.0148 117.798 38.7748 118.918 38.7748C119.878 38.7748 120.678 38.9348 121.318 39.2548L120.838 40.5347C120.198 40.2147 119.558 40.0547 118.838 40.0547C118.198 40.0547 117.798 40.2147 117.398 40.5347C117.078 40.7747 116.998 41.0947 116.998 41.4947C116.998 41.8946 117.158 42.2946 117.478 42.5346C117.798 42.7746 118.278 43.0946 118.998 43.3346C119.878 43.7346 120.598 44.1345 120.998 44.6145C121.478 45.0945 121.638 45.7345 121.638 46.4544Z" fill="#0129A4"/>
<path d="M127.321 43.0152H125.481V46.775C125.481 47.735 125.801 48.2149 126.441 48.2149C126.761 48.2149 127.001 48.2149 127.161 48.1349L127.241 49.4149C126.921 49.5749 126.441 49.5749 125.881 49.5749C125.241 49.5749 124.681 49.3349 124.281 48.9349C123.882 48.5349 123.722 47.815 123.722 46.855V43.0152H122.602V41.7352H123.722V40.2953L125.401 39.8153V41.7352H127.241C127.321 41.7352 127.321 43.0152 127.321 43.0152Z" fill="#0129A4"/>
<path d="M135.803 45.4961C135.803 46.6961 135.483 47.656 134.763 48.376C134.043 49.176 133.083 49.576 131.963 49.576C130.843 49.576 129.963 49.176 129.243 48.456C128.523 47.736 128.203 46.7761 128.203 45.6561C128.203 44.4562 128.523 43.4962 129.243 42.6962C129.963 41.9763 130.843 41.5763 132.043 41.5763C133.163 41.5763 134.043 41.9763 134.763 42.6962C135.483 43.4162 135.803 44.3762 135.803 45.4961ZM134.043 45.5761C134.043 44.8562 133.883 44.2962 133.563 43.7362C133.243 43.0962 132.683 42.8562 132.043 42.8562C131.323 42.8562 130.843 43.1762 130.443 43.7362C130.123 44.2162 129.963 44.8562 129.963 45.5761C129.963 46.2961 130.123 46.8561 130.443 47.416C130.843 48.056 131.323 48.296 131.963 48.296C132.603 48.296 133.163 47.976 133.483 47.336C133.883 46.8561 134.043 46.2961 134.043 45.5761Z" fill="#0129A4"/>
<path d="M141.322 43.2562C141.162 43.2562 141.002 43.1762 140.762 43.1762C140.122 43.1762 139.722 43.4162 139.402 43.8962C139.082 44.2962 139.002 44.7762 139.002 45.4161V49.416H137.322V44.1362C137.322 43.2562 137.322 42.4563 137.242 41.7363H138.762L138.842 43.1762H138.922C139.082 42.6962 139.402 42.2963 139.802 41.9763C140.202 41.7363 140.602 41.5763 141.002 41.5763C141.162 41.5763 141.322 41.5763 141.402 41.5763C141.322 41.6563 141.322 43.2562 141.322 43.2562Z" fill="#0129A4"/>
<path d="M148.997 45.2546C148.997 45.5746 148.997 45.8146 148.917 46.0546H143.797C143.797 46.7745 144.037 47.4145 144.517 47.8145C144.917 48.1345 145.477 48.3745 146.197 48.3745C146.917 48.3745 147.637 48.2145 148.277 47.9745L148.517 49.1744C147.797 49.4944 146.917 49.6544 145.957 49.6544C144.757 49.6544 143.797 49.3344 143.157 48.6144C142.517 47.8945 142.117 47.0145 142.117 45.8146C142.117 44.6946 142.437 43.6547 143.077 42.9347C143.717 42.1347 144.597 41.7347 145.797 41.7347C146.917 41.7347 147.717 42.1347 148.277 42.9347C148.757 43.4147 148.997 44.2946 148.997 45.2546ZM147.317 44.7746C147.317 44.2946 147.237 43.8147 146.997 43.4947C146.677 43.0147 146.277 42.7747 145.637 42.7747C145.077 42.7747 144.597 43.0147 144.277 43.4947C143.957 43.8946 143.797 44.2946 143.797 44.8546L147.317 44.7746Z" fill="#0129A4"/>
<path d="M89.4839 32.219C89.4839 33.179 89.1639 33.899 88.6039 34.3789C88.0439 34.7789 87.324 35.0189 86.364 35.0189C85.884 35.0189 85.484 35.0189 85.1641 34.9389V29.8191C85.644 29.7391 86.124 29.7391 86.604 29.7391C87.484 29.7391 88.2039 29.8991 88.6839 30.2991C89.2439 30.7791 89.4839 31.4191 89.4839 32.219ZM88.6039 32.219C88.6039 31.5791 88.4439 31.1791 88.1239 30.7791C87.8039 30.4591 87.324 30.2991 86.684 30.2991C86.444 30.2991 86.204 30.2991 86.044 30.3791V34.2989C86.124 34.2989 86.364 34.2989 86.604 34.2989C87.244 34.2989 87.724 34.1389 88.1239 33.739C88.5239 33.339 88.6039 32.939 88.6039 32.219Z" fill="#0129A4"/>
<path d="M94.2033 33.0171C94.2033 33.5771 94.0433 34.057 93.7233 34.457C93.4033 34.857 92.9233 35.017 92.3634 35.017C91.8034 35.017 91.4034 34.857 91.0034 34.457C90.6834 34.057 90.5234 33.6571 90.5234 33.0971C90.5234 32.5371 90.6834 32.0571 91.0034 31.6571C91.3234 31.2572 91.8034 31.0972 92.3634 31.0972C92.9233 31.0972 93.3233 31.2572 93.7233 31.6571C94.0433 32.0571 94.2033 32.4571 94.2033 33.0171ZM93.3233 33.0971C93.3233 32.7771 93.2433 32.4571 93.0833 32.2171C92.9233 31.8971 92.6833 31.7371 92.3634 31.7371C92.0434 31.7371 91.8034 31.8971 91.5634 32.2171C91.4034 32.4571 91.3234 32.7771 91.3234 33.0971C91.3234 33.4171 91.4034 33.7371 91.5634 33.977C91.7234 34.297 91.9634 34.457 92.3634 34.457C92.6833 34.457 92.9233 34.297 93.0833 33.977C93.2433 33.7371 93.3233 33.4171 93.3233 33.0971Z" fill="#0129A4"/>
<path d="M100.52 31.1764L99.3198 34.9362H98.5198L98.0399 33.3363C97.8799 32.9363 97.7999 32.5363 97.7199 32.1363C97.6399 32.5363 97.5599 32.9363 97.3999 33.3363L96.9199 34.9362H96.1199L95 31.1764H95.88L96.2799 32.9363C96.3599 33.3363 96.4399 33.7363 96.5199 34.1363C96.5999 33.8163 96.6799 33.4163 96.8399 32.9363L97.3999 31.1764H98.1199L98.5998 32.9363C98.7598 33.3363 98.8398 33.8163 98.9198 34.2163C98.9998 33.8163 99.0798 33.4163 99.1598 32.9363L99.6398 31.1764H100.52Z" fill="#0129A4"/>
<path d="M104.84 34.9374H104.041V32.7775C104.041 32.1375 103.801 31.8175 103.321 31.8175C103.081 31.8175 102.841 31.8975 102.681 32.0575C102.521 32.2175 102.441 32.4575 102.441 32.6975V34.9374H101.641V32.2175C101.641 31.8975 101.641 31.4976 101.641 31.1776H102.281V31.7375C102.361 31.5776 102.521 31.4176 102.681 31.2576C102.921 31.0976 103.161 31.0176 103.401 31.0176C103.721 31.0176 104.041 31.0976 104.281 31.3376C104.6 31.5776 104.68 32.0575 104.68 32.6175V34.9374H104.84Z" fill="#0129A4"/>
<path d="M107.167 34.9378H106.367V29.498H107.167V34.9378Z" fill="#0129A4"/>
<path d="M112.125 33.0171C112.125 33.5771 111.965 34.057 111.645 34.457C111.325 34.857 110.845 35.017 110.285 35.017C109.725 35.017 109.325 34.857 108.925 34.457C108.605 34.057 108.445 33.6571 108.445 33.0971C108.445 32.5371 108.605 32.0571 108.925 31.6571C109.245 31.2572 109.725 31.0972 110.285 31.0972C110.845 31.0972 111.245 31.2572 111.645 31.6571C111.965 32.0571 112.125 32.4571 112.125 33.0171ZM111.245 33.0971C111.245 32.7771 111.165 32.4571 111.005 32.2171C110.845 31.8971 110.605 31.7371 110.285 31.7371C109.965 31.7371 109.725 31.8971 109.485 32.2171C109.325 32.4571 109.245 32.7771 109.245 33.0971C109.245 33.4171 109.325 33.7371 109.485 33.977C109.645 34.297 109.885 34.457 110.285 34.457C110.605 34.457 110.845 34.297 111.005 33.977C111.165 33.7371 111.245 33.4171 111.245 33.0971Z" fill="#0129A4"/>
<path d="M116.12 34.9369H115.4L115.32 34.5369C115.08 34.8569 114.68 35.0169 114.2 35.0169C113.88 35.0169 113.56 34.9369 113.32 34.6969C113.16 34.4569 113 34.2169 113 33.8969C113 33.4169 113.16 33.097 113.56 32.857C113.96 32.617 114.52 32.457 115.16 32.537V32.457C115.16 31.977 114.92 31.737 114.36 31.737C113.96 31.737 113.64 31.817 113.4 31.977L113.32 31.417C113.64 31.177 114.12 31.097 114.6 31.097C115.56 31.097 116.04 31.577 116.04 32.617V33.9769C116.12 34.4569 116.12 34.7769 116.12 34.9369ZM115.24 33.6569V33.097C114.28 33.097 113.88 33.3369 113.88 33.8169C113.88 33.9769 113.96 34.1369 114.04 34.2969C114.12 34.3769 114.28 34.4569 114.44 34.4569C114.6 34.4569 114.76 34.3769 114.92 34.2969C115.08 34.2169 115.16 34.0569 115.24 33.8169C115.24 33.7369 115.24 33.7369 115.24 33.6569Z" fill="#0129A4"/>
<path d="M120.926 34.9378H120.206V34.2978C119.966 34.7778 119.566 35.0178 119.006 35.0178C118.526 35.0178 118.206 34.8578 117.886 34.4578C117.566 34.0579 117.406 33.6579 117.406 33.0979C117.406 32.4579 117.566 31.9779 117.886 31.578C118.206 31.258 118.606 31.018 119.086 31.018C119.566 31.018 119.966 31.178 120.126 31.498V29.498H120.926V33.9779C120.846 34.2978 120.926 34.6178 120.926 34.9378ZM120.046 33.3379V32.6979C120.046 32.6179 120.046 32.5379 120.046 32.4579C119.966 32.2179 119.886 32.0579 119.726 31.9779C119.566 31.8179 119.406 31.738 119.166 31.738C118.846 31.738 118.606 31.8979 118.446 32.1379C118.286 32.3779 118.206 32.6979 118.206 33.0979C118.206 33.4979 118.286 33.7379 118.446 33.9779C118.606 34.2178 118.846 34.3778 119.166 34.3778C119.406 34.3778 119.646 34.2978 119.806 34.0579C119.966 33.8979 120.046 33.6579 120.046 33.3379Z" fill="#0129A4"/>
<path d="M128.039 33.0171C128.039 33.5771 127.879 34.057 127.559 34.457C127.239 34.857 126.759 35.017 126.199 35.017C125.639 35.017 125.239 34.857 124.839 34.457C124.519 34.057 124.359 33.6571 124.359 33.0971C124.359 32.5371 124.519 32.0571 124.839 31.6571C125.159 31.2572 125.639 31.0972 126.199 31.0972C126.759 31.0972 127.159 31.2572 127.559 31.6571C127.879 32.0571 128.039 32.4571 128.039 33.0171ZM127.239 33.0971C127.239 32.7771 127.159 32.4571 126.999 32.2171C126.839 31.8971 126.599 31.7371 126.279 31.7371C125.959 31.7371 125.719 31.8971 125.479 32.2171C125.319 32.4571 125.239 32.7771 125.239 33.0971C125.239 33.4171 125.319 33.7371 125.479 33.977C125.639 34.297 125.879 34.457 126.279 34.457C126.599 34.457 126.839 34.297 126.999 33.977C127.159 33.7371 127.239 33.4171 127.239 33.0971Z" fill="#0129A4"/>
<path d="M132.6 34.9374H131.8V32.7775C131.8 32.1375 131.56 31.8175 131 31.8175C130.76 31.8175 130.52 31.8975 130.36 32.0575C130.2 32.2175 130.12 32.4575 130.12 32.6975V34.9374H129.32V32.2175C129.32 31.8975 129.32 31.4976 129.32 31.1776H130.04V31.7375C130.12 31.5776 130.28 31.4176 130.44 31.2576C130.68 31.0976 130.92 31.0176 131.24 31.0176C131.56 31.0176 131.88 31.0976 132.12 31.3376C132.44 31.5776 132.52 32.0575 132.52 32.6175V34.9374H132.6Z" fill="#0129A4"/>
<path d="M138.195 31.8175H137.235V33.6575C137.235 34.1374 137.395 34.3774 137.715 34.3774C137.875 34.3774 137.955 34.3774 138.115 34.3774V35.0174C137.955 35.0974 137.715 35.0974 137.475 35.0974C137.155 35.0974 136.915 35.0174 136.675 34.7774C136.515 34.5374 136.435 34.2174 136.435 33.7375V31.8175H135.875V31.1776H136.435V30.5376L137.235 30.2976V31.2576H138.195V31.8175Z" fill="#0129A4"/>
<path d="M142.682 34.9378H141.882V32.7779C141.882 32.1379 141.642 31.738 141.162 31.738C140.762 31.738 140.522 31.8979 140.362 32.2979C140.362 32.3779 140.362 32.4579 140.362 32.6179V34.8578H139.562V29.498H140.362V31.738C140.602 31.338 141.002 31.098 141.482 31.098C141.802 31.098 142.122 31.178 142.362 31.418C142.682 31.738 142.762 32.1379 142.762 32.6979C142.682 32.6979 142.682 34.9378 142.682 34.9378Z" fill="#0129A4"/>
<path d="M147.241 32.9363C147.241 33.0963 147.241 33.1763 147.241 33.3363H144.681C144.681 33.7363 144.841 33.9763 145.081 34.2163C145.321 34.3763 145.561 34.4562 145.881 34.4562C146.281 34.4562 146.601 34.3763 146.921 34.2963L147.081 34.8562C146.761 35.0162 146.281 35.0962 145.801 35.0962C145.241 35.0962 144.761 34.9362 144.441 34.6162C144.121 34.2963 143.961 33.8163 143.961 33.2563C143.961 32.6963 144.121 32.2163 144.441 31.8164C144.761 31.4164 145.241 31.1764 145.721 31.1764C146.281 31.1764 146.681 31.4164 146.921 31.8164C147.161 32.0564 147.241 32.4563 147.241 32.9363ZM146.441 32.6963C146.441 32.4563 146.361 32.2163 146.281 32.0564C146.121 31.8164 145.881 31.7364 145.641 31.7364C145.401 31.7364 145.161 31.8164 145.001 32.0564C144.841 32.2163 144.761 32.4563 144.761 32.6963C144.681 32.6963 146.441 32.6963 146.441 32.6963Z" fill="#0129A4"/>
<defs>
<filter id="filter0_d_4074_6400" x="0.536514" y="0.398312" width="204.927" height="86.927" filterUnits="userSpaceOnUse" color-interpolation-filters="sRGB">
<feFlood flood-opacity="0" result="BackgroundImageFix"/>
<feColorMatrix in="SourceAlpha" type="matrix" values="0 0 0 0 0 0 0 0 0 0 0 0 0 0 0 0 0 0 127 0" result="hardAlpha"/>
<feOffset dy="2.8618"/>
<feGaussianBlur stdDeviation="10.7317"/>
<feColorMatrix type="matrix" values="0 0 0 0 0 0 0 0 0 0 0 0 0 0 0 0 0 0 0.06 0"/>
<feBlend mode="normal" in2="BackgroundImageFix" result="effect1_dropShadow_4074_6400"/>
<feBlend mode="normal" in="SourceGraphic" in2="effect1_dropShadow_4074_6400" result="shape"/>
</filter>
</defs>
</svg>
