<svg width="20" height="20" viewBox="0 0 20 20" fill="none" xmlns="http://www.w3.org/2000/svg">
<path d="M13.9572 2.96662V1.66663C13.9572 1.32496 13.6739 1.04163 13.3322 1.04163C12.9906 1.04163 12.7072 1.32496 12.7072 1.66663V2.91663H7.29056V1.66663C7.29056 1.32496 7.00722 1.04163 6.66556 1.04163C6.32389 1.04163 6.04056 1.32496 6.04056 1.66663V2.96662C3.79056 3.17496 2.69889 4.51662 2.53222 6.50829C2.51556 6.74996 2.71556 6.94996 2.94889 6.94996H17.0489C17.2906 6.94996 17.4906 6.74162 17.4656 6.50829C17.2989 4.51662 16.2072 3.17496 13.9572 2.96662Z" fill="#042AA1"/>
<path opacity="0.4" d="M16.6667 8.19995C17.125 8.19995 17.5 8.57495 17.5 9.03328V14.1666C17.5 16.6666 16.25 18.3333 13.3333 18.3333H6.66667C3.75 18.3333 2.5 16.6666 2.5 14.1666V9.03328C2.5 8.57495 2.875 8.19995 3.33333 8.19995H16.6667Z" fill="#042AA1"/>
<path d="M7.08333 12.5C6.86667 12.5 6.65 12.4083 6.49167 12.2583C6.34167 12.1 6.25 11.8833 6.25 11.6666C6.25 11.45 6.34167 11.2333 6.49167 11.075C6.725 10.8416 7.09167 10.7666 7.4 10.9C7.50833 10.9416 7.6 11 7.675 11.075C7.825 11.2333 7.91667 11.45 7.91667 11.6666C7.91667 11.8833 7.825 12.1 7.675 12.2583C7.51667 12.4083 7.3 12.5 7.08333 12.5Z" fill="#042AA1"/>
<path d="M9.9974 12.5C9.78073 12.5 9.56406 12.4083 9.40573 12.2583C9.25573 12.1 9.16406 11.8833 9.16406 11.6666C9.16406 11.45 9.25573 11.2333 9.40573 11.075C9.48073 11 9.57239 10.9416 9.68073 10.9C9.98906 10.7666 10.3557 10.8416 10.5891 11.075C10.7391 11.2333 10.8307 11.45 10.8307 11.6666C10.8307 11.8833 10.7391 12.1 10.5891 12.2583C10.5474 12.2916 10.5057 12.325 10.4641 12.3583C10.4141 12.3916 10.3641 12.4167 10.3141 12.4333C10.2641 12.4583 10.2141 12.475 10.1641 12.4833C10.1057 12.4917 10.0557 12.5 9.9974 12.5Z" fill="#042AA1"/>
<path d="M12.9193 12.4999C12.7026 12.4999 12.4859 12.4083 12.3276 12.2583C12.1776 12.0999 12.0859 11.8833 12.0859 11.6666C12.0859 11.4499 12.1776 11.2333 12.3276 11.0749C12.4109 10.9999 12.4943 10.9416 12.6026 10.8999C12.7526 10.8333 12.9193 10.8166 13.0859 10.8499C13.1359 10.8583 13.1859 10.8749 13.2359 10.8999C13.2859 10.9166 13.3359 10.9416 13.3859 10.9749C13.4276 11.0083 13.4693 11.0416 13.5109 11.0749C13.6609 11.2333 13.7526 11.4499 13.7526 11.6666C13.7526 11.8833 13.6609 12.0999 13.5109 12.2583C13.4693 12.2916 13.4276 12.3249 13.3859 12.3583C13.3359 12.3916 13.2859 12.4166 13.2359 12.4333C13.1859 12.4583 13.1359 12.4749 13.0859 12.4833C13.0276 12.4916 12.9693 12.4999 12.9193 12.4999Z" fill="#042AA1"/>
<path d="M7.08333 15.4167C6.975 15.4167 6.86667 15.3917 6.76667 15.35C6.65833 15.3084 6.575 15.25 6.49167 15.175C6.34167 15.0167 6.25 14.8 6.25 14.5833C6.25 14.3667 6.34167 14.15 6.49167 13.9917C6.575 13.9167 6.65833 13.8583 6.76667 13.8167C6.91667 13.75 7.08333 13.7333 7.25 13.7667C7.3 13.775 7.35 13.7917 7.4 13.8167C7.45 13.8333 7.5 13.8584 7.55 13.8917C7.59167 13.925 7.63333 13.9584 7.675 13.9917C7.825 14.15 7.91667 14.3667 7.91667 14.5833C7.91667 14.8 7.825 15.0167 7.675 15.175C7.63333 15.2083 7.59167 15.25 7.55 15.275C7.5 15.3083 7.45 15.3334 7.4 15.35C7.35 15.375 7.3 15.3917 7.25 15.4C7.19167 15.4084 7.14167 15.4167 7.08333 15.4167Z" fill="#042AA1"/>
<path d="M9.9974 15.4166C9.78073 15.4166 9.56406 15.3249 9.40573 15.1749C9.25573 15.0166 9.16406 14.8 9.16406 14.5833C9.16406 14.3666 9.25573 14.15 9.40573 13.9916C9.71406 13.6833 10.2807 13.6833 10.5891 13.9916C10.7391 14.15 10.8307 14.3666 10.8307 14.5833C10.8307 14.8 10.7391 15.0166 10.5891 15.1749C10.4307 15.3249 10.2141 15.4166 9.9974 15.4166Z" fill="#042AA1"/>
<path d="M12.9193 15.4166C12.7026 15.4166 12.4859 15.3249 12.3276 15.1749C12.1776 15.0166 12.0859 14.8 12.0859 14.5833C12.0859 14.3666 12.1776 14.15 12.3276 13.9916C12.6359 13.6833 13.2026 13.6833 13.5109 13.9916C13.6609 14.15 13.7526 14.3666 13.7526 14.5833C13.7526 14.8 13.6609 15.0166 13.5109 15.1749C13.3526 15.3249 13.1359 15.4166 12.9193 15.4166Z" fill="#042AA1"/>
</svg>
