<svg width="40" height="40" viewBox="0 0 40 40" fill="none" xmlns="http://www.w3.org/2000/svg">
<rect x="4.59375" y="7.94385" width="31.777" height="25.8188" fill="#18254A"/>
<path d="M28.3941 0H11.6258C4.34216 0 0 4.30976 0 11.539V28.1624C0 35.4115 4.34216 39.7213 11.6258 39.7213H28.3741C35.6578 39.7213 39.9999 35.4115 39.9999 28.1823V11.539C40.0199 4.30976 35.6778 0 28.3941 0ZM26.7333 24.4286C27.3136 25.0046 27.3136 25.9579 26.7333 26.5338C26.4332 26.8317 26.053 26.9708 25.6728 26.9708C25.2926 26.9708 24.9124 26.8317 24.6123 26.5338L20.01 21.9659L15.4077 26.5338C15.1075 26.8317 14.7273 26.9708 14.3471 26.9708C13.967 26.9708 13.5868 26.8317 13.2866 26.5338C13.0075 26.2535 12.851 25.8753 12.851 25.4812C12.851 25.0871 13.0075 24.7089 13.2866 24.4286L17.8889 19.8606L13.2866 15.2927C13.0075 15.0124 12.851 14.6342 12.851 14.2401C12.851 13.846 13.0075 13.4678 13.2866 13.1875C13.8669 12.6115 14.8274 12.6115 15.4077 13.1875L20.01 17.7554L24.6123 13.1875C25.1926 12.6115 26.153 12.6115 26.7333 13.1875C27.3136 13.7634 27.3136 14.7167 26.7333 15.2927L22.131 19.8606L26.7333 24.4286Z" fill="#E8EBF5"/>
</svg>
