<svg width="16" height="16" viewBox="0 0 16 16" fill="none" xmlns="http://www.w3.org/2000/svg">
<rect width="16" height="16" rx="2" fill="#0129A4"/>
<path d="M5.00022 7.50578H5.62108H6.21108L8.16427 4.5332H6.95148L5.31258 7.0326L3.66982 4.5332H2.45703L4.40829 7.50578H5.00022Z" fill="white"/>
<path d="M5.69435 8.29321H4.92695H4.48156L2.45703 11.3777H3.66982L5.31258 8.8783L6.95148 11.3777H8.16427L6.13975 8.29321H5.69435Z" fill="white"/>
<path d="M11.8663 10.2684C11.5334 10.4734 11.1481 10.5725 10.7595 10.5531C10.5044 10.5703 10.249 10.5233 10.0159 10.4161C9.78286 10.3089 9.57934 10.1449 9.42336 9.93854C9.2184 9.64003 9.08621 9.29611 9.03773 8.93524C9.03773 8.91168 9.03773 8.88616 9.03773 8.86063C9.00884 8.67288 8.99338 8.48324 8.99146 8.29321H7.88086C7.92713 9.25331 8.17201 9.98958 8.60969 10.506C9.10586 11.0871 9.82569 11.3777 10.7692 11.3777C12.1227 11.3777 12.9904 10.8541 13.3722 9.80699L12.4409 9.53408C12.3357 9.8376 12.1333 10.0962 11.8663 10.2684Z" fill="white"/>
<path d="M13.5148 7.50578C13.3798 5.52406 12.4473 4.5332 10.7171 4.5332C9.79932 4.5332 9.09555 4.82378 8.59617 5.40691C8.19126 5.88336 7.95217 6.52866 7.87891 7.34282V7.50578H8.98372V7.34282C8.9895 7.2113 9.00238 7.08021 9.02228 6.95014C9.03541 6.85793 9.05474 6.76674 9.08013 6.67723C9.08013 6.65956 9.08012 6.63992 9.09362 6.62029C9.164 6.35019 9.29243 6.09938 9.46961 5.88598C9.78935 5.54826 10.2269 5.35248 10.6875 5.34108C11.148 5.32969 11.5944 5.5036 11.9299 5.82511C12.2153 6.14318 12.3849 6.6517 12.4466 7.34478L12.4698 7.50578H9.80896V8.29113H13.5264V8.03982L13.5148 7.50578Z" fill="white"/>
</svg>
