<svg width="20" height="20" viewBox="0 0 20 20" fill="none" xmlns="http://www.w3.org/2000/svg">
<path opacity="0.4" d="M16.0802 6.59998V10.8917C16.0802 13.4583 14.6135 14.5583 12.4135 14.5583H5.08854C4.71354 14.5583 4.3552 14.525 4.02187 14.45C3.81354 14.4167 3.61354 14.3583 3.43021 14.2917C2.18021 13.825 1.42188 12.7417 1.42188 10.8917V6.59998C1.42188 4.03332 2.88854 2.93335 5.08854 2.93335H12.4135C14.2802 2.93335 15.6219 3.72501 15.9802 5.53334C16.0385 5.86668 16.0802 6.20832 16.0802 6.59998Z" fill="#042AA1"/>
<path d="M18.5818 9.09997V13.3917C18.5818 15.9583 17.1151 17.0583 14.9151 17.0583H7.5901C6.97344 17.0583 6.41511 16.975 5.93178 16.7917C4.94011 16.425 4.2651 15.6667 4.02344 14.45C4.35677 14.525 4.7151 14.5583 5.0901 14.5583H12.4151C14.6151 14.5583 16.0818 13.4583 16.0818 10.8917V6.59997C16.0818 6.2083 16.0484 5.85833 15.9818 5.53333C17.5651 5.86666 18.5818 6.9833 18.5818 9.09997Z" fill="#042AA1"/>
<path d="M8.74689 10.9501C9.96191 10.9501 10.9469 9.96509 10.9469 8.75006C10.9469 7.53503 9.96191 6.55005 8.74689 6.55005C7.53186 6.55005 6.54688 7.53503 6.54688 8.75006C6.54688 9.96509 7.53186 10.9501 8.74689 10.9501Z" fill="#042AA1"/>
<path d="M3.98438 6.875C3.64271 6.875 3.35938 7.15833 3.35938 7.5V10C3.35938 10.3417 3.64271 10.625 3.98438 10.625C4.32604 10.625 4.60938 10.3417 4.60938 10V7.5C4.60938 7.15833 4.33437 6.875 3.98438 6.875Z" fill="#042AA1"/>
<path d="M13.5078 6.875C13.1661 6.875 12.8828 7.15833 12.8828 7.5V10C12.8828 10.3417 13.1661 10.625 13.5078 10.625C13.8495 10.625 14.1328 10.3417 14.1328 10V7.5C14.1328 7.15833 13.8578 6.875 13.5078 6.875Z" fill="#042AA1"/>
</svg>
