<svg width="34" height="33" viewBox="0 0 34 33" fill="none" xmlns="http://www.w3.org/2000/svg">
<path opacity="0.4" d="M24.0726 23.3751C27.9778 19.5782 27.9778 13.4221 24.0726 9.62512C20.1673 5.82816 13.8357 5.82816 9.93044 9.62512C6.0252 13.4221 6.0252 19.5782 9.93044 23.3751C13.8357 27.1721 20.1673 27.1721 24.0726 23.3751Z" fill="#0537B0"/>
<path d="M17.7542 15.7714L17.7542 12.6089C17.7542 12.2101 17.4148 11.8801 17.0047 11.8801C16.5945 11.8801 16.2551 12.2101 16.2551 12.6089L16.2551 15.7714L13.0024 15.7714C12.5923 15.7714 12.2529 16.1014 12.2529 16.5001C12.2529 16.8989 12.5923 17.2289 13.0024 17.2289L16.2551 17.2289L16.2551 20.3914C16.2551 20.7901 16.5945 21.1201 17.0047 21.1201C17.2168 21.1201 17.4006 21.0376 17.535 20.907C17.6693 20.7764 17.7542 20.5976 17.7542 20.3914L17.7542 17.2289L21.0069 17.2289C21.219 17.2289 21.4029 17.1464 21.5372 17.0157C21.6716 16.8851 21.7564 16.7064 21.7564 16.5001C21.7564 16.1014 21.417 15.7714 21.0069 15.7714L17.7542 15.7714Z" fill="#0537B0"/>
</svg>
