<svg width="201" height="63" viewBox="0 0 201 63" fill="none" xmlns="http://www.w3.org/2000/svg">
<g filter="url(#filter0_d_4074_6372)">
<rect x="22" y="19" width="157" height="44" rx="8" fill="white"/>
</g>
<path d="M83.9129 32.6419C83.9129 33.2824 83.6727 33.8428 83.3525 34.2431C82.8721 34.7234 82.3117 34.9636 81.5912 34.9636C80.8707 34.9636 80.3103 34.7234 79.8299 34.2431C79.3496 33.7627 79.1094 33.2023 79.1094 32.4818C79.1094 31.7613 79.3496 31.2009 79.8299 30.7205C80.3103 30.2402 80.8707 30 81.5912 30C81.9114 30 82.2317 30.08 82.5519 30.2402C82.8721 30.4003 83.1123 30.5604 83.2724 30.8006L82.8721 31.2009C82.5519 30.8006 82.1516 30.6404 81.5111 30.6404C81.0308 30.6404 80.5504 30.8006 80.2302 31.2009C79.8299 31.5211 79.6698 32.0014 79.6698 32.5619C79.6698 33.1223 79.8299 33.6026 80.2302 33.9229C80.6305 34.2431 81.0308 34.4833 81.5111 34.4833C82.0716 34.4833 82.4718 34.3232 82.8721 33.9229C83.1123 33.6827 83.2724 33.3624 83.2724 32.9622H81.5111V32.4017H83.8328C83.9129 32.4017 83.9129 32.5619 83.9129 32.6419Z" fill="#0129A4"/>
<path d="M87.6771 30.6394H85.5155V32.1605H87.5169V32.721H85.5155V34.2421H87.6771V34.8025H84.875V30.079H87.6771V30.6394Z" fill="#0129A4"/>
<path d="M90.2339 34.8025H89.5934V30.6394H88.3125V30.079H91.5949V30.6394H90.2339V34.8025Z" fill="#0129A4"/>
<path d="M94.0078 34.8025V30.079H94.6483V34.8025H94.0078Z" fill="#0129A4"/>
<path d="M97.3608 34.8025H96.7204V30.6394H95.3594V30.079H98.7218V30.6394H97.3608V34.8025Z" fill="#0129A4"/>
<path d="M104.97 34.2431C104.489 34.7234 103.929 34.9636 103.208 34.9636C102.488 34.9636 101.927 34.7234 101.447 34.2431C100.967 33.7627 100.727 33.2023 100.727 32.4818C100.727 31.7613 100.967 31.2009 101.447 30.7205C101.927 30.2402 102.488 30 103.208 30C103.929 30 104.489 30.2402 104.97 30.7205C105.45 31.2009 105.69 31.7613 105.69 32.4818C105.69 33.1223 105.45 33.7627 104.97 34.2431ZM101.847 33.8428C102.168 34.163 102.648 34.4032 103.128 34.4032C103.609 34.4032 104.089 34.2431 104.409 33.8428C104.73 33.5226 104.97 33.0422 104.97 32.4818C104.97 31.9214 104.81 31.441 104.409 31.1208C104.089 30.8006 103.609 30.5604 103.128 30.5604C102.648 30.5604 102.168 30.7205 101.847 31.1208C101.527 31.441 101.287 31.9214 101.287 32.4818C101.367 33.0422 101.527 33.4425 101.847 33.8428Z" fill="#0129A4"/>
<path d="M106.57 34.8025V30.079H107.291L109.613 33.7617V32.8811V30.079H110.253V34.8025H109.613L107.131 30.9597V31.8403V34.8025H106.57Z" fill="#0129A4"/>
<path d="M100.725 41.7684C98.8039 41.7684 97.2827 43.2094 97.2827 45.1308C97.2827 47.0522 98.8039 48.4933 100.725 48.4933C102.647 48.4933 104.168 47.0522 104.168 45.1308C104.168 43.2094 102.647 41.7684 100.725 41.7684ZM100.725 47.2124C99.6845 47.2124 98.8039 46.3317 98.8039 45.1308C98.8039 43.93 99.6845 43.0493 100.725 43.0493C101.766 43.0493 102.647 43.8499 102.647 45.1308C102.647 46.3317 101.766 47.2124 100.725 47.2124ZM93.2798 41.7684C91.3584 41.7684 89.8373 43.2094 89.8373 45.1308C89.8373 47.0522 91.3584 48.4933 93.2798 48.4933C95.2012 48.4933 96.7223 47.0522 96.7223 45.1308C96.6423 43.2094 95.1211 41.7684 93.2798 41.7684ZM93.2798 47.2124C92.239 47.2124 91.3584 46.3317 91.3584 45.1308C91.3584 43.93 92.239 43.0493 93.2798 43.0493C94.3206 43.0493 95.2012 43.8499 95.2012 45.1308C95.2012 46.3317 94.3206 47.2124 93.2798 47.2124ZM84.3933 42.8091V44.2502H87.8358C87.7557 45.0508 87.4355 45.6112 87.0352 46.0115C86.5548 46.4918 85.7543 47.0522 84.3933 47.0522C82.2317 47.0522 80.6305 45.371 80.6305 43.2094C80.6305 41.0478 82.3117 39.3666 84.3933 39.3666C85.5141 39.3666 86.3947 39.847 87.0352 40.4074L88.076 39.3666C87.1953 38.566 86.0745 37.9255 84.4733 37.9255C81.5111 37.9255 79.1094 40.2472 79.1094 43.1294C79.1094 46.0115 81.5912 48.3332 84.4733 48.3332C86.0745 48.3332 87.2754 47.8528 88.156 46.8921C89.1167 45.9314 89.437 44.6505 89.437 43.5297C89.437 43.2094 89.437 42.8892 89.3569 42.649C89.1968 42.8091 84.3933 42.8091 84.3933 42.8091ZM120.74 43.93C120.42 43.2094 119.619 41.7684 117.778 41.7684C116.017 41.7684 114.575 43.1294 114.575 45.1308C114.575 47.0522 116.017 48.4933 117.938 48.4933C119.539 48.4933 120.42 47.5326 120.82 46.9722L119.619 46.1716C119.219 46.732 118.739 47.1323 117.938 47.1323C117.217 47.1323 116.657 46.8121 116.257 46.0915L120.82 44.2502C120.9 44.3302 120.74 43.93 120.74 43.93ZM116.097 45.0508C116.097 43.7698 117.137 43.0493 117.858 43.0493C118.418 43.0493 118.979 43.3695 119.139 43.7698L116.097 45.0508ZM112.334 48.3332H113.855V38.4059H112.334V48.3332ZM109.932 42.4889C109.532 42.0886 108.891 41.7684 108.091 41.7684C106.409 41.7684 104.808 43.2895 104.808 45.1308C104.808 47.0522 106.409 48.4933 108.091 48.4933C108.891 48.4933 109.532 48.1731 109.852 47.6927H109.932V48.1731C109.932 49.454 109.212 50.1745 108.091 50.1745C107.21 50.1745 106.57 49.5341 106.409 48.9737L105.129 49.5341C105.529 50.4147 106.489 51.5355 108.171 51.5355C109.932 51.5355 111.453 50.4948 111.453 48.013V41.9285H110.012L109.932 42.4889ZM108.171 47.2124C107.13 47.2124 106.249 46.3317 106.249 45.2109C106.249 44.01 107.13 43.1294 108.171 43.1294C109.212 43.1294 110.012 44.01 110.012 45.2109C110.012 46.3317 109.212 47.2124 108.171 47.2124ZM127.705 38.4059H124.102V48.3332H125.624V44.5704H127.705C129.386 44.5704 130.988 43.3695 130.988 41.5282C131.068 39.6068 129.386 38.4059 127.705 38.4059ZM127.785 43.2094H125.624V39.7669H127.785C128.906 39.7669 129.546 40.6475 129.546 41.4481C129.546 42.2487 128.906 43.2094 127.785 43.2094ZM137.072 41.7684C135.951 41.7684 134.83 42.2487 134.43 43.2895L135.791 43.8499C136.111 43.2895 136.592 43.1294 137.152 43.1294C137.953 43.1294 138.753 43.6097 138.753 44.4103V44.4904C138.513 44.3302 137.873 44.0901 137.152 44.0901C135.711 44.0901 134.27 44.8907 134.27 46.3317C134.27 47.6927 135.471 48.4933 136.752 48.4933C137.793 48.4933 138.353 48.013 138.673 47.5326H138.753V48.3332H140.194V44.4904C140.114 42.7291 138.753 41.7684 137.072 41.7684ZM136.832 47.2124C136.351 47.2124 135.631 46.9722 135.631 46.4118C135.631 45.6112 136.512 45.371 137.232 45.371C137.873 45.371 138.193 45.5311 138.593 45.6912C138.513 46.5719 137.712 47.2124 136.832 47.2124ZM145.318 42.0085L143.637 46.3317H143.557L141.795 42.0085H140.194L142.836 48.013L141.315 51.3754H142.916L146.999 42.0085H145.318ZM131.868 48.3332H133.389V38.4059H131.868V48.3332Z" fill="#0129A4"/>
<path d="M54.3976 30.6833C54.159 30.9219 54 31.3195 54 31.7966V49.2113C54 49.6884 54.159 50.086 54.3976 50.3246L54.4771 50.4041L64.3375 40.6232V40.3847L54.3976 30.6833Z" fill="url(#paint0_linear_4074_6372)"/>
<path d="M67.5962 43.8827L64.3359 40.6224V40.3838L67.5962 37.1235L67.6757 37.2031L71.5722 39.4296C72.6854 40.0657 72.6854 41.0995 71.5722 41.7356L67.5962 43.8827C67.6757 43.8827 67.5962 43.8827 67.5962 43.8827Z" fill="url(#paint1_linear_4074_6372)"/>
<path d="M67.6781 43.884L64.3383 40.5442L54.3984 50.325C54.796 50.7226 55.3527 50.7226 56.0683 50.4045L67.6781 43.884Z" fill="url(#paint2_linear_4074_6372)"/>
<path d="M67.6781 37.2042L56.0683 30.6836C55.3527 30.286 54.796 30.3656 54.3984 30.7632L64.3383 40.544L67.6781 37.2042Z" fill="url(#paint3_linear_4074_6372)"/>
<defs>
<filter id="filter0_d_4074_6372" x="0.536514" y="0.398312" width="199.927" height="86.927" filterUnits="userSpaceOnUse" color-interpolation-filters="sRGB">
<feFlood flood-opacity="0" result="BackgroundImageFix"/>
<feColorMatrix in="SourceAlpha" type="matrix" values="0 0 0 0 0 0 0 0 0 0 0 0 0 0 0 0 0 0 127 0" result="hardAlpha"/>
<feOffset dy="2.8618"/>
<feGaussianBlur stdDeviation="10.7317"/>
<feColorMatrix type="matrix" values="0 0 0 0 0 0 0 0 0 0 0 0 0 0 0 0 0 0 0.06 0"/>
<feBlend mode="normal" in2="BackgroundImageFix" result="effect1_dropShadow_4074_6372"/>
<feBlend mode="normal" in="SourceGraphic" in2="effect1_dropShadow_4074_6372" result="shape"/>
</filter>
<linearGradient id="paint0_linear_4074_6372" x1="63.4471" y1="49.387" x2="50.2269" y2="36.0106" gradientUnits="userSpaceOnUse">
<stop stop-color="#00A0FF"/>
<stop offset="0.0066" stop-color="#00A1FF"/>
<stop offset="0.2601" stop-color="#00BEFF"/>
<stop offset="0.5122" stop-color="#00D2FF"/>
<stop offset="0.7604" stop-color="#00DFFF"/>
<stop offset="1" stop-color="#00E3FF"/>
</linearGradient>
<linearGradient id="paint1_linear_4074_6372" x1="73.016" y1="40.5031" x2="53.7286" y2="40.5031" gradientUnits="userSpaceOnUse">
<stop stop-color="#FFE000"/>
<stop offset="0.4087" stop-color="#FFBD00"/>
<stop offset="0.7754" stop-color="#FFA500"/>
<stop offset="1" stop-color="#FF9C00"/>
</linearGradient>
<linearGradient id="paint2_linear_4074_6372" x1="59.1996" y1="45.2678" x2="41.2719" y2="27.1284" gradientUnits="userSpaceOnUse">
<stop stop-color="#FF3A44"/>
<stop offset="1" stop-color="#C31162"/>
</linearGradient>
<linearGradient id="paint3_linear_4074_6372" x1="45.2567" y1="49.6003" x2="53.2622" y2="41.5003" gradientUnits="userSpaceOnUse">
<stop stop-color="#32A071"/>
<stop offset="0.0685" stop-color="#2DA771"/>
<stop offset="0.4762" stop-color="#15CF74"/>
<stop offset="0.8009" stop-color="#06E775"/>
<stop offset="1" stop-color="#00F076"/>
</linearGradient>
</defs>
</svg>
