<svg width="121" height="22" viewBox="0 0 121 22" fill="none" xmlns="http://www.w3.org/2000/svg">
<g opacity="0.9">
<path d="M8.64002 18.5188C8.00402 19.0183 7.21323 19.2768 6.40647 19.2488C5.84649 19.2811 5.28801 19.1635 4.78802 18.9081C4.28803 18.6526 3.86444 18.2684 3.56048 17.7948C2.93204 16.8294 2.61582 15.3392 2.61182 13.3241C2.61182 11.2305 2.91203 9.74032 3.50044 8.85343C3.82677 8.40192 4.26342 8.04256 4.76825 7.81006C5.27308 7.57756 5.82904 7.47976 6.38245 7.52611C7.20006 7.47299 8.00655 7.7388 8.63402 8.2682C9.17593 8.80255 9.51923 9.50738 9.6067 10.2652L12.1765 10.0722C11.9765 8.76632 11.2949 7.5839 10.2672 6.75988C9.16587 5.92793 7.81334 5.50188 6.43649 5.55322C4.36504 5.55322 2.76793 6.22292 1.63314 7.55628C0.498347 8.88963 0 10.8384 0 13.3844C0 15.9305 0.552385 17.8913 1.66316 19.2246C2.77393 20.558 4.37705 21.2337 6.46651 21.2337C7.89443 21.2889 9.29449 20.8264 10.4113 19.9305C11.456 19.0595 12.1198 17.8121 12.2605 16.4554L9.73279 16.2864C9.6704 17.1448 9.27858 17.9452 8.64002 18.5188Z" fill="white"/>
<path d="M22.2167 5.55918C21.2226 5.52282 20.2378 5.76291 19.3708 6.25301C18.5635 6.79479 17.9164 7.54507 17.4975 8.425H17.3293C17.3888 8.0774 17.4309 7.72703 17.4554 7.3752C17.4854 6.77187 17.5035 6.16855 17.5035 5.61348V0.219727H15.0117V20.9501H17.5155V12.0389C17.449 10.8425 17.8278 9.664 18.5782 8.73269C18.93 8.33216 19.3666 8.01589 19.856 7.80708C20.3454 7.59828 20.8751 7.50224 21.4062 7.52604C22.0427 7.49436 22.6773 7.61859 23.2555 7.88803C23.7047 8.13602 24.0469 8.54215 24.2161 9.02832C24.4426 9.79504 24.54 10.5944 24.5043 11.3934V20.9501H27.0201V10.8805C27.0201 8.96196 26.6338 7.59642 25.8613 6.78394C25.0887 5.97146 23.8739 5.56321 22.2167 5.55918Z" fill="white"/>
<path d="M42.7557 18.8383C42.5326 18.3067 42.432 17.7313 42.4615 17.1551V10.6451C42.5109 9.94726 42.4086 9.24695 42.1619 8.59272C41.9151 7.93848 41.5298 7.34598 41.0325 6.85624C40.0959 5.99147 38.6729 5.55908 36.7636 5.55908C33.7695 5.55908 31.8742 6.5043 31.0776 8.39473C30.8377 9.00714 30.7214 9.66135 30.7354 10.3193V10.44L33.3472 9.87288C33.3677 9.52382 33.46 9.18282 33.6181 8.87132C33.7762 8.55982 33.9967 8.28457 34.2658 8.0629C34.9983 7.61168 35.8524 7.40081 36.7095 7.45957C37.1492 7.42118 37.592 7.4719 38.0118 7.6087C38.4315 7.7455 38.8197 7.9656 39.1532 8.25596C39.6756 8.78689 39.9338 9.66775 39.9338 10.8985V11.7191L36.5594 11.7794C34.2778 11.8317 32.6247 12.2782 31.6 13.1188C31.0812 13.5605 30.6722 14.1177 30.4053 14.7461C30.1385 15.3745 30.0213 16.0568 30.0629 16.7388C30.0023 17.9455 30.4188 19.1274 31.2217 20.0269C31.6754 20.4534 32.2122 20.7809 32.7981 20.9885C33.384 21.1962 34.0064 21.2797 34.6261 21.2336C35.7038 21.2667 36.7716 21.0172 37.7242 20.5096C38.6786 19.9166 39.4498 19.0684 39.9518 18.0601H40.192C40.246 19.1038 40.3301 19.87 40.7503 20.3587C41.0142 20.6214 41.3321 20.8228 41.6816 20.9489C42.0311 21.075 42.4039 21.1228 42.7738 21.0888C43.4247 21.0908 44.0736 21.0158 44.7071 20.8655V19.3029C44.4371 19.364 44.1613 19.3964 43.8845 19.3994C43.6623 19.4276 43.4368 19.3894 43.2361 19.2896C43.0354 19.1898 42.8683 19.0329 42.7557 18.8383ZM39.9338 14.7357C39.9347 15.5278 39.7276 16.3062 39.3334 16.9922C38.9339 17.708 38.3514 18.3037 37.6462 18.7177C36.8977 19.1345 36.0519 19.3428 35.1965 19.321C34.8544 19.3433 34.5114 19.2954 34.1883 19.1802C33.8653 19.0651 33.5689 18.8852 33.3172 18.6513C33.0855 18.3955 32.9076 18.0953 32.7941 17.7687C32.6806 17.4422 32.6339 17.096 32.6567 16.7508C32.6303 16.1117 32.8001 15.4798 33.143 14.9408C33.4901 14.4592 33.9765 14.0968 34.536 13.9031C35.4042 13.6419 36.3079 13.5197 37.2139 13.5411L39.9338 13.4929V14.7357Z" fill="white"/>
<path d="M50.4848 6.25341C49.8152 7.01056 49.3428 7.92262 49.1098 8.90806H48.9477C48.9477 8.56416 49.0197 7.53247 48.9477 5.81902H46.582C46.6361 7.10411 46.6661 8.2806 46.6661 9.34246V20.9505H49.1638V13.1072C49.0875 11.7673 49.3717 10.4314 49.9864 9.23989C50.2247 8.81525 50.5751 8.46494 50.9988 8.22756C51.4226 7.99017 51.9033 7.87491 52.3881 7.89447C52.8365 7.88356 53.2844 7.93019 53.721 8.03323V5.69835C53.3902 5.60826 53.0491 5.56161 52.7063 5.55959C51.9048 5.49778 51.1101 5.74597 50.4848 6.25341Z" fill="white"/>
<path d="M59.8555 18.7358C59.5738 18.2799 59.4493 17.7435 59.5013 17.2094V7.67077H62.2812V5.86078H59.5013V2.45801H57.0996V5.83665H55.2383V7.64663H56.9735V17.7524C56.9735 20.033 57.9742 21.1733 59.9756 21.1733C60.8291 21.1756 61.6791 21.064 62.5033 20.8414V18.9832C62.0298 19.091 61.5475 19.1556 61.0623 19.1762C60.8412 19.1979 60.6181 19.1697 60.4093 19.0935C60.2004 19.0172 60.0112 18.895 59.8555 18.7358Z" fill="white"/>
<path d="M70.676 5.55908C68.5145 5.55908 66.8573 6.22274 65.6925 7.5561C64.5277 8.88946 63.9453 10.802 63.9453 13.2998C63.9453 15.9263 64.5277 17.9032 65.6925 19.2305C66.8573 20.5578 68.5505 21.2255 70.7721 21.2336C73.9743 21.2336 76.0177 20.041 76.9023 17.6558L74.7048 17.0525C74.4619 17.7404 73.9942 18.3253 73.3779 18.7116C72.5941 19.1873 71.6865 19.4163 70.7721 19.3693C70.176 19.4052 69.5801 19.2955 69.0353 19.0497C68.4906 18.8038 68.0131 18.4291 67.6439 17.9575C66.8637 16.7744 66.4885 15.368 66.5751 13.9514H77.3046V13.6135C77.3046 8.2439 75.0951 5.55908 70.676 5.55908ZM66.6052 11.9966C66.5936 10.7868 66.9987 9.61013 67.752 8.66622C68.1129 8.26245 68.5588 7.94463 69.0574 7.73589C69.5559 7.52715 70.0945 7.43275 70.634 7.45957C71.1637 7.42487 71.6946 7.50496 72.1908 7.6944C72.687 7.88385 73.1369 8.17824 73.51 8.55763C74.1764 9.28765 74.5847 10.446 74.7108 12.0388L66.6052 11.9966Z" fill="white"/>
<path d="M85.9617 5.55943C85.1683 5.50386 84.3834 5.7517 83.7642 6.25326C83.0946 7.0104 82.6223 7.92246 82.3892 8.9079H82.2571C82.2571 8.56401 82.2571 7.53231 82.2091 5.81886H79.8555C79.9095 7.10395 79.9395 8.28044 79.9395 9.3423V20.9503H82.4373V13.1071C82.361 11.7671 82.6451 10.4313 83.2598 9.23973C83.4982 8.81509 83.8485 8.46479 84.2723 8.2274C84.696 7.99001 85.1767 7.87475 85.6615 7.89431C86.1099 7.8834 86.5578 7.93003 86.9944 8.03308V5.6982C86.6578 5.60654 86.3105 5.55988 85.9617 5.55943Z" fill="white"/>
<path d="M94.8088 9.35155H96.7161H98.5286L104.529 0.219727H100.803L95.7684 7.89794L90.7218 0.219727H86.9961L92.9904 9.35155H94.8088Z" fill="white"/>
<path d="M96.9412 11.7703H94.5838H93.2155L86.9961 21.2459H90.7218L95.7684 13.5677L100.803 21.2459H104.529L98.3095 11.7703H96.9412Z" fill="white"/>
<path d="M115.903 17.838C114.881 18.4678 113.697 18.7724 112.504 18.7126C111.72 18.7657 110.935 18.6211 110.219 18.2919C109.503 17.9626 108.878 17.4587 108.399 16.8247C107.769 15.9077 107.363 14.8512 107.214 13.7426C107.214 13.6702 107.214 13.5918 107.214 13.5134C107.125 12.9366 107.078 12.354 107.072 11.7703H103.66C103.802 14.7197 104.555 16.9816 105.899 18.5679C107.423 20.3532 109.635 21.2459 112.533 21.2459C116.691 21.2459 119.357 19.6375 120.53 16.4206L117.669 15.5822C117.346 16.5146 116.724 17.3092 115.903 17.838Z" fill="white"/>
<path d="M120.966 9.35155C120.551 3.26367 117.686 0.219727 112.371 0.219727C109.552 0.219727 107.39 1.1124 105.856 2.90378C104.612 4.36745 103.877 6.34983 103.652 8.85093V9.35155H107.046V8.85093C107.064 8.44692 107.104 8.04421 107.165 7.64461C107.205 7.36134 107.265 7.08122 107.343 6.80622C107.343 6.75194 107.343 6.69162 107.384 6.63131C107.6 5.80155 107.995 5.03105 108.539 4.37549C109.521 3.338 110.866 2.73656 112.28 2.70156C113.695 2.66655 115.067 3.20082 116.097 4.18851C116.974 5.16563 117.495 6.72781 117.684 8.85696L117.756 9.35155H109.582V11.7642H121.002V10.9921L120.966 9.35155Z" fill="white"/>
</g>
</svg>
