<svg width="538" height="69" viewBox="0 0 538 69" fill="none" xmlns="http://www.w3.org/2000/svg">
<path d="M22.4727 13.1091H64.9693L61.8835 22.8079L27.2043 22.6315C25.7055 22.6315 24.4124 23.572 23.9421 25.0121L14.038 56.1069C13.6559 57.3119 14.567 58.5757 15.8307 58.5757L51.5385 58.7814L48.3057 68.921H11.3048C4.28081 68.921 -0.715334 62.0731 1.40068 55.3722L12.5979 20.3391C13.9792 16.0481 17.9761 13.1091 22.5021 13.1091H22.4727Z" fill="#F3F3F3"/>
<path d="M95.7986 68.8917H95.8574L99.5604 57.0181L95.7986 68.8917Z" fill="#F3F3F3"/>
<path d="M241.186 17.1062L255.176 13.1091L251.12 25.8645H277.188L274.661 33.8292H248.593L239.982 60.9269H266.05L263.522 68.8916H230.636C227.785 68.8916 225.757 66.129 226.609 63.3957L241.216 17.1062H241.186Z" fill="#F3F3F3"/>
<path d="M296.203 24.2187L320.126 24.1599C328.413 24.1599 334.35 32.2128 331.822 40.1188L331.734 40.4127C330.059 45.6735 325.269 49.1709 319.832 49.1709C307.753 49.1709 288.003 49.1709 288.003 49.1709L285.593 56.5772C285.182 57.841 286.122 59.1636 287.474 59.1636H323.535L320.478 68.9505H284.418C276.865 68.9505 271.457 61.603 273.75 54.373L279.304 36.7095C281.626 29.3326 288.474 24.3069 296.203 24.2775V24.2187ZM290.501 41.1768L316.893 41.0005C318.774 41.0005 320.42 39.7661 320.978 37.9733C321.86 35.1812 319.773 32.301 316.805 32.3304L295.38 32.5067C294.087 32.5067 292.941 33.359 292.559 34.5934L290.472 41.1768H290.501Z" fill="#F3F3F3"/>
<path d="M155.429 68.8036L131.506 68.8624C123.219 68.8624 117.282 60.8095 119.81 52.9035L119.898 52.6096C121.573 47.3488 126.363 43.8513 131.8 43.8513C143.879 43.8513 163.629 43.8513 163.629 43.8513L166.039 36.445C166.45 35.1812 165.51 33.8587 164.158 33.8587H128.097L131.154 24.0718H167.214C174.767 24.0718 180.175 31.4193 177.882 38.6493L172.328 56.3128C170.006 63.6897 163.158 68.7154 155.429 68.7448V68.8036ZM161.131 51.8455L134.739 52.0218C132.858 52.0218 131.213 53.2562 130.654 55.049C129.772 57.8411 131.859 60.7213 134.827 60.6919L156.252 60.5156C157.545 60.5156 158.691 59.6632 159.073 58.4289L161.16 51.8455H161.131Z" fill="#F3F3F3"/>
<path d="M328.031 68.8916L339.875 31.9188C341.345 27.3633 345.577 24.2773 350.367 24.2773H385.399L382.754 34.0349H354.129C353.041 34.0349 352.042 34.7402 351.719 35.7689L340.727 68.8916H328.031Z" fill="#F3F3F3"/>
<path d="M174.591 68.8916L186.435 31.9188C187.904 27.3633 192.136 24.2773 196.926 24.2773H231.958L229.313 34.0349H200.688C199.601 34.0349 198.602 34.7402 198.278 35.7689L187.287 68.8916H174.591Z" fill="#F3F3F3"/>
<path d="M122.631 29.2445C122.631 30.0674 122.513 30.9491 122.19 31.919L110.229 68.8918H97.5325L101.236 57.0182L107.877 35.7985C108.201 34.7404 107.672 34.0351 106.584 34.0351H78.312L67.2323 68.8918H54.5068L72.2579 13.1387H84.954L81.4273 24.2775H116.635C120.427 24.2775 122.601 26.1879 122.631 29.2445Z" fill="#F3F3F3"/>
<path d="M537.811 34.9171C537.634 36.945 536.517 50.9935 519.295 50.9935H492.199L493.609 39.3844H521.235C525.526 39.3844 526.76 36.7099 526.878 34.5057C527.054 31.9193 525.555 29.6857 522.499 29.6857H494.373C492.081 29.6857 490.259 30.1853 488.907 31.214C487.526 32.2426 486.762 33.5064 486.585 35.0053L484.499 52.0516C484.293 53.668 484.851 54.9318 486.144 55.8429C487.438 56.754 489.113 57.1949 491.17 57.1949H524.292L522.881 68.8334H492.61C490.288 68.8334 487.82 68.5395 485.204 67.9516C482.588 67.3638 480.208 66.394 478.062 65.0714C475.917 63.7489 474.212 62.0148 472.919 59.8694C471.626 57.7239 471.185 55.1082 471.538 52.0516L473.625 34.9171C473.83 33.2419 474.448 31.4197 475.506 29.4506C476.564 27.4814 478.092 25.6886 480.149 24.0134C482.177 22.3381 484.734 20.9274 487.82 19.8106C490.905 18.6938 494.55 18.106 498.782 18.106H519.295C521.617 18.106 539.221 18.1353 537.811 34.9171Z" fill="#F3F3F3"/>
<path d="M487.114 1.17723L479.796 3.99868L446.44 29.9796L433.832 15.6372L451.377 2.58796C452.612 1.44174 454.375 0.795158 456.226 1.17723H487.114Z" fill="#F3F3F3"/>
<path d="M434.42 28.657H410.174C408.675 28.657 407.411 28.0986 406.735 27.1581L385.311 3.61658L377.258 0.501221H406.206C407.793 0.501221 409.175 1.03024 409.968 2.00012L434.42 28.657Z" fill="#F3F3F3"/>
<path d="M473.654 68.951H446.793C445.176 68.951 443.795 68.3926 442.972 67.3933L430.629 50.6997L445.235 39.3845L467.835 66.688L473.654 68.951Z" fill="#F3F3F3"/>
<path d="M432.157 40.0896L396.978 67.4518C395.626 68.4217 393.921 68.9507 392.334 68.9507H364.121L371.968 65.9235L404.149 41.5885C405.383 40.648 406.97 40.0896 408.44 40.0896H432.157Z" fill="#F3F3F3"/>
</svg>
